<svg width="28" height="28" viewBox="0 0 28 28" fill="none" xmlns="http://www.w3.org/2000/svg">
<path d="M18.6668 9.33333C20.5233 9.33333 22.3038 10.0708 23.6166 11.3836C24.9293 12.6963 25.6668 14.4768 25.6668 16.3333V24.5H21.0002V16.3333C21.0002 15.7145 20.7543 15.121 20.3167 14.6834C19.8792 14.2458 19.2857 14 18.6668 14C18.048 14 17.4545 14.2458 17.0169 14.6834C16.5793 15.121 16.3335 15.7145 16.3335 16.3333V24.5H11.6668V16.3333C11.6668 14.4768 12.4043 12.6963 13.7171 11.3836C15.0298 10.0708 16.8103 9.33333 18.6668 9.33333Z" fill="#445264"/>
<path d="M7.00016 10.5H2.3335V24.5H7.00016V10.5Z" fill="#445264"/>
<path d="M4.66683 7C5.95549 7 7.00016 5.95533 7.00016 4.66667C7.00016 3.378 5.95549 2.33333 4.66683 2.33333C3.37817 2.33333 2.3335 3.378 2.3335 4.66667C2.3335 5.95533 3.37817 7 4.66683 7Z" fill="#445264"/>
<path d="M18.6668 9.33333C20.5233 9.33333 22.3038 10.0708 23.6166 11.3836C24.9293 12.6963 25.6668 14.4768 25.6668 16.3333V24.5H21.0002V16.3333C21.0002 15.7145 20.7543 15.121 20.3167 14.6834C19.8792 14.2458 19.2857 14 18.6668 14C18.048 14 17.4545 14.2458 17.0169 14.6834C16.5793 15.121 16.3335 15.7145 16.3335 16.3333V24.5H11.6668V16.3333C11.6668 14.4768 12.4043 12.6963 13.7171 11.3836C15.0298 10.0708 16.8103 9.33333 18.6668 9.33333Z" stroke="#445264" stroke-linecap="round" stroke-linejoin="round"/>
<path d="M7.00016 10.5H2.3335V24.5H7.00016V10.5Z" stroke="#445264" stroke-linecap="round" stroke-linejoin="round"/>
<path d="M4.66683 7C5.95549 7 7.00016 5.95533 7.00016 4.66667C7.00016 3.378 5.95549 2.33333 4.66683 2.33333C3.37817 2.33333 2.3335 3.378 2.3335 4.66667C2.3335 5.95533 3.37817 7 4.66683 7Z" stroke="#445264" stroke-linecap="round" stroke-linejoin="round"/>
</svg>
