<svg width="22" height="22" viewBox="0 0 22 22" fill="none" xmlns="http://www.w3.org/2000/svg">
<g clip-path="url(#clip0_201_13)">
<path d="M8.25016 17.4167C3.66683 18.7917 3.66683 15.125 1.8335 14.6667ZM14.6668 20.1667V16.6192C14.7012 16.1821 14.6422 15.7427 14.4936 15.3301C14.345 14.9176 14.1103 14.5415 13.8052 14.2267C16.6835 13.9058 19.7085 12.815 19.7085 7.81C19.7083 6.53017 19.216 5.29943 18.3335 4.3725C18.7514 3.2528 18.7218 2.01515 18.251 0.916665C18.251 0.916665 17.1693 0.595832 14.6668 2.27333C12.5658 1.70392 10.3512 1.70392 8.25016 2.27333C5.74766 0.595832 4.666 0.916665 4.666 0.916665C4.19517 2.01515 4.16563 3.2528 4.5835 4.3725C3.69445 5.30631 3.20164 6.54817 3.2085 7.8375C3.2085 12.8058 6.2335 13.8967 9.11183 14.2542C8.81024 14.5658 8.57765 14.9375 8.4292 15.3449C8.28074 15.7524 8.21974 16.1866 8.25016 16.6192V20.1667" fill="#445264"/>
<path d="M8.25016 17.4167C3.66683 18.7917 3.66683 15.125 1.8335 14.6667M14.6668 20.1667V16.6192C14.7012 16.1821 14.6422 15.7427 14.4936 15.3301C14.345 14.9176 14.1103 14.5415 13.8052 14.2267C16.6835 13.9058 19.7085 12.815 19.7085 7.81C19.7083 6.53017 19.216 5.29943 18.3335 4.3725C18.7514 3.2528 18.7218 2.01515 18.251 0.916665C18.251 0.916665 17.1693 0.595832 14.6668 2.27333C12.5658 1.70392 10.3512 1.70392 8.25016 2.27333C5.74766 0.595832 4.666 0.916665 4.666 0.916665C4.19517 2.01515 4.16563 3.2528 4.5835 4.3725C3.69445 5.30631 3.20164 6.54817 3.2085 7.8375C3.2085 12.8058 6.2335 13.8967 9.11183 14.2542C8.81024 14.5658 8.57765 14.9375 8.4292 15.3449C8.28074 15.7524 8.21974 16.1866 8.25016 16.6192V20.1667" stroke="#445264" stroke-width="2" stroke-linecap="round" stroke-linejoin="round"/>
</g>
<defs>
<clipPath id="clip0_201_13">
<rect width="22" height="22" fill="white"/>
</clipPath>
</defs>
</svg>
